<svg width="120" height="120" viewBox="0 0 120 120" fill="none" xmlns="http://www.w3.org/2000/svg">
<path d="M66.6 97H107.3C108.599 97 109.842 96.5395 110.967 95.89C112.091 95.2405 113.251 94.425 113.9 93.2998C114.549 92.1749 115.001 90.8984 115 89.5997C114.999 88.3006 114.55 87.0247 113.9 85.9003L86.4 38.1701C85.7509 37.0452 84.9578 36.2294 83.8334 35.5799C82.7088 34.9307 81.0985 34.4699 79.8 34.4699C78.5015 34.4699 77.2578 34.9307 76.1334 35.5799C75.0088 36.2294 74.2157 37.0452 73.5666 38.1701L66.6 50.3801L52.6666 26.6991C52.017 25.5745 51.2249 24.3893 50.1 23.7401C48.9751 23.0906 47.7321 23 46.4334 23C45.1347 23 43.8915 23.0906 42.7666 23.7401C41.6419 24.3893 40.483 25.5745 39.8334 26.6991L5.73334 85.9003C5.08323 87.0247 5.00057 88.3006 5 89.5997C4.99943 90.8984 5.08421 92.1746 5.73334 93.2998C6.38247 94.4248 7.54191 95.2405 8.66666 95.89C9.79144 96.5395 11.0345 97 12.3333 97H38C48.1701 97 55.5725 92.3964 60.7334 83.68L73.2 61.85L79.8 50.3801L99.9666 85.1599H73.2L66.6 97ZM37.6334 85.1599H19.6666L46.4334 38.54L60 61.85L51.0135 77.658C47.5863 83.3135 43.6788 85.1599 37.6334 85.1599Z" fill="#00DC82"/>
</svg>
